<svg width="160" height="30" viewBox="0 0 160 30" fill="none" xmlns="http://www.w3.org/2000/svg">
<rect width="160" height="30" fill="#F0F1FA"/>
<rect x="0.5" y="0.5" width="39" height="29" fill="white" stroke="#52458A"/>
<path opacity="0.1" d="M80.5 0V30" stroke="black"/>
<path opacity="0.1" d="M120.5 0V30" stroke="black"/>
<path d="M18.5 10.5V7.5H21.5V10.5H18.5Z" stroke="#52458A"/>
<path d="M24.5 10.5V7.5H27.5V10.5H24.5Z" stroke="#52458A"/>
<path d="M18.5 16.5V13.5H21.5V16.5H18.5Z" stroke="#52458A"/>
<path d="M24.5 16.5V13.5H27.5V16.5H24.5Z" stroke="#52458A"/>
<path d="M18.5 22.5V19.5H21.5V22.5H18.5Z" stroke="#52458A"/>
<path d="M24.5 22.5V19.5H27.5V22.5H24.5Z" stroke="#52458A"/>
<path opacity="0.2" d="M58 7.5H68M58 10.5H68M58 13.5H68M58 16.5H68M58 19.5H68M58 22.5H68M52.5 7.5V10.5H55.5V7.5H52.5ZM52.5 13.5V16.5H55.5V13.5H52.5ZM52.5 19.5V22.5H55.5V19.5H52.5Z" stroke="black"/>
<path opacity="0.2" d="M93 7.5H109M93 10.5H109M93 13.5H109M93 16.5H109M93 19.5H109M93 22.5H109" stroke="black"/>
<rect x="120" width="40" height="30" fill="#52458A"/>
<path d="M133 7.5H135M133 10.5H135M133 13.5H135M133 16.5H135M133 19.5H135M133 22.5H135M137 7.5H139M137 10.5H139M137 13.5H139M137 16.5H139M137 19.5H139M137 22.5H139M147 7.5H145M147 10.5H145M147 13.5H145M147 16.5H145M147 19.5H145M147 22.5H145M143 22.5H141M141 19.5H143M143 16.5H141M141 13.5H143M143 10.5H141M141 7.5H143" stroke="white"/>
</svg>
